<svg xmlns="http://www.w3.org/2000/svg" viewBox="0 0 24 24">
    <style>
        .st0{fill:#fff}
    </style>
    <path class="st0" d="M16 9.9c-.5 0-1 .1-1.4.1l-3.3-1.9V.7c0-.3-.2-.6-.5-.7s-.6 0-.8.2L1 11.1c0 .2-.1.4 0 .6 0 .3.2.4.4.5L5.9 14v8.4c0 .3.2.6.5.7h.2c.2-.1.4-.1.6-.3l2.4-3c1.1 2.5 3.6 4.2 6.4 4.2 3.9 0 7-3.2 7-7 .1-3.9-3.1-7.1-7-7.1zm-6.9 8.3l-1.8 2.2v-6.9c0-.3-.2-.5-.4-.7l-4.1-1.6 7.1-8.6v5.9c0 .2.1.5.3.6l2.6 1.5C10.6 11.9 9 14.2 9 17c0 .4 0 .8.1 1.2zm6.9 4.4c-3.1 0-5.6-2.5-5.6-5.6 0-3.1 2.5-5.6 5.6-5.6s5.6 2.5 5.6 5.6c.1 3.1-2.5 5.6-5.6 5.6z"/>
    <path class="st0" d="M16.4 16.3h-.8c-.3 0-.5-.2-.5-.5s.2-.5.5-.5H17c.4 0 .7-.3.7-.7 0-.4-.3-.7-.7-.7h-.3v-.3c0-.4-.3-.7-.7-.7-.4 0-.7.3-.7.7v.4c-.9.1-1.6.9-1.6 1.9 0 1 .8 1.9 1.9 1.9h.8c.3 0 .5.2.5.5s-.2.5-.5.5H15c-.4 0-.7.3-.7.7 0 .4.3.7.7.7h.4v.3c0 .4.3.7.7.7.4 0 .7-.3.7-.7V20c.9-.2 1.5-.9 1.5-1.8 0-1.1-.9-1.9-1.9-1.9z"/>
</svg>
