<svg width="79" height="79" fill="none" xmlns="http://www.w3.org/2000/svg">
    <path d="M46.667 46.679H5.385V7.19h41.282v15.095l3.592.767V6.693a3.568 3.568 0 001.794-3.091 3.59 3.59 0 00-3.59-3.59H3.59A3.59 3.59 0 000 3.602c0 1.326.726 2.47 1.795 3.091v41.781c0 .99.804 1.795 1.794 1.795H14.65L8.196 74.47a3.594 3.594 0 003.473 4.518 3.595 3.595 0 003.467-2.666l6.949-26.053h7.883l6.948 26.053a3.592 3.592 0 004.396 2.543 3.594 3.594 0 002.545-4.393L37.402 50.27h11.062c.992 0 1.793-.805 1.793-1.795V37.74l-3.591-.768v9.707h.001z" fill="#fff"/>
    <path d="M61.936 26.053a6.378 6.378 0 006.375-6.372 6.374 6.374 0 10-6.375 6.372z" fill="#fff"/>
    <path d="M78.756 47.19l-6.592-17.064a3.581 3.581 0 00-3.345-2.296h-3.503c-.985 0-1.845.43-2.488 1.077L64.5 41.176l-2.563 2.173-2.56-2.173 1.67-12.269c-.646-.647-1.505-1.077-2.49-1.077h-3.121l-20.58-4.397a3.59 3.59 0 10-1.5 7.023l20.948 4.474c.217.047.44.072.663.077v16.605l-1.374 23.574a3.594 3.594 0 003.589 3.799 3.593 3.593 0 003.582-3.382l1.178-20.219 1.177 20.219a3.592 3.592 0 003.793 3.375 3.59 3.59 0 003.376-3.792l-1.372-23.574v-9.998l3.153 8.163a3.593 3.593 0 004.644 2.055 3.59 3.59 0 002.044-4.642z" fill="#fff"/>
    <path d="M8.078 25.591v15.257a1.794 1.794 0 103.589 0V25.591a1.793 1.793 0 10-3.589 0z" fill="#fff"/>
    <path d="M16.153 13.025v27.822a1.794 1.794 0 103.589 0V13.025a1.794 1.794 0 10-3.589 0z" fill="#fff"/>
    <path d="M24.231 20.202v20.645a1.793 1.793 0 103.589 0V20.202a1.795 1.795 0 10-3.589 0z" fill="#fff"/>
</svg>
