<svg xmlns="http://www.w3.org/2000/svg" viewBox="0 0 24 24">
    <style>
        .st0{fill:#fff}
    </style>
    <path class="st0" d="M11.5 11.5c0 .3.2.5.5.5s.5-.2.5-.5c0-.6.2-1.3.6-1.7.9-1.1 1.6-2.3 2-3.5.1-.2 0-.4-.1-.5-.1-.1-.3-.2-.4-.2H9.3c-.2 0-.3.1-.4.2-.2.1-.2.2-.1.4.4 1.2 1.1 2.4 2 3.5.4.5.7 1.1.7 1.8z"/>
    <path class="st0" d="M12.5 13.6c0-.3-.2-.5-.5-.5s-.5.2-.5.5c0 .8-.5 1.6-1.3 2.2-1.8 1.3-3.2 2.8-4.1 4.4-.1.2-.1.4 0 .5.1.2.3.3.4.3h10.9c.2 0 .4-.1.5-.3.1-.2.1-.4 0-.5-.9-1.5-2.2-3-4.1-4.4-.8-.6-1.3-1.4-1.3-2.2z"/>
    <path class="st0" d="M21.5 21.8h-.3c-.4-4.2-2.9-7.5-4.8-9.8 1.9-2.3 4.4-5.6 4.8-9.8h.3c.6 0 1.1-.5 1.1-1.1S22.1 0 21.5 0h-19c-.6 0-1.1.5-1.1 1.1 0 .6.5 1.1 1.1 1.1h.3c.4 4.2 2.8 7.5 4.8 9.8-1.9 2.3-4.4 5.6-4.8 9.8h-.3c-.6 0-1.1.5-1.1 1.1 0 .6.5 1.1 1.1 1.1H21.7c.6 0 1.1-.5 1.1-1.1-.2-.6-.7-1.1-1.3-1.1zM5 21.8c.4-3.8 2.9-6.8 4.8-9l.1-.1c.3-.4.3-1 0-1.4l-.1-.1C7.9 9 5.4 6 5 2.2h14c-.4 3.8-2.9 6.8-4.8 9l-.1.1c-.3.4-.3 1 0 1.4l.1.1c1.9 2.2 4.4 5.2 4.8 9H5z"/>
</svg>
