<svg width="77" height="77" fill="none" xmlns="http://www.w3.org/2000/svg">
    <g clip-path="url(#clip0)" fill="#fff">
        <path d="M36.75 36.744c0 .969.784 1.748 1.75 1.748.964 0 1.749-.784 1.749-1.748a8.718 8.718 0 012.05-5.604c2.937-3.483 5.139-7.26 6.533-11.224a1.751 1.751 0 00-1.65-2.331H29.815a1.751 1.751 0 00-1.651 2.331c1.397 3.965 3.595 7.741 6.533 11.224a8.715 8.715 0 012.052 5.604z"/>
        <path d="M40.249 43.758a1.749 1.749 0 00-3.5 0c-.001 2.526-1.51 5.025-4.248 7.051-5.855 4.324-10.237 9.02-13.025 13.958a1.738 1.738 0 00.014 1.74c.312.54.888.868 1.51.868h35a1.748 1.748 0 001.524-2.608c-2.786-4.937-7.17-9.634-13.024-13.958-2.74-2.026-4.25-4.524-4.251-7.05z"/>
        <path d="M69.122 70.001h-1.047c-1.203-13.619-9.178-24.074-15.377-31.5 6.2-7.425 14.173-17.882 15.38-31.5h1.047a3.5 3.5 0 000-7.001H7.875a3.5 3.5 0 000 7h1.047c1.204 13.62 9.176 24.078 15.377 31.5-6.2 7.425-14.173 17.88-15.379 31.501H7.875a3.5 3.5 0 000 7h61.25a3.5 3.5 0 10-.003-7zm-53.185 0c1.316-12.305 9.315-21.78 15.293-28.86l.32-.38a3.497 3.497 0 000-4.513l-.318-.377c-5.976-7.082-13.98-16.558-15.295-28.864h45.124c-1.315 12.307-9.318 21.782-15.294 28.864l-.317.377a3.497 3.497 0 000 4.514l.32.378c5.976 7.08 13.976 16.556 15.291 28.861H15.937z"/>
    </g>
    <defs>
        <clipPath id="clip0">
            <path fill="#fff" d="M0 0h77v77H0z"/>
        </clipPath>
    </defs>
</svg>
