<svg width="82" height="82" fill="none" xmlns="http://www.w3.org/2000/svg">
    <g clip-path="url(#clip0)" fill="#fff">
        <path d="M54.765 33.953c-1.678 0-3.317.174-4.898.502l-11.195-6.6V2.403a2.402 2.402 0 00-4.254-1.53L3.754 37.962a2.402 2.402 0 00.973 3.767l15.475 6.082v28.53a2.402 2.402 0 004.254 1.53l8.366-10.12C36.573 76.141 44.997 82 54.765 82c13.246 0 24.023-10.777 24.023-24.023 0-13.247-10.777-24.024-24.023-24.024zM25.006 69.665v-23.49c0-.988-.604-1.876-1.523-2.237L9.569 38.47 33.867 9.079v20.15c0 .85.45 1.637 1.182 2.069l8.886 5.239c-7.821 3.966-13.194 12.087-13.194 21.44 0 1.463.132 2.896.384 4.287l-6.119 7.4zm29.759 7.53c-10.598 0-19.22-8.621-19.22-19.218 0-10.598 8.622-19.22 19.22-19.22 10.597 0 19.218 8.622 19.218 19.22 0 10.597-8.621 19.218-19.218 19.218z"/>
        <path d="M56.094 55.574h-2.66c-.873 0-1.583-.71-1.583-1.584 0-.872.71-1.583 1.584-1.583h4.872a2.402 2.402 0 000-4.805h-.962v-.964a2.402 2.402 0 10-4.805 0v1.028c-3.1.437-5.493 3.106-5.493 6.324a6.396 6.396 0 006.388 6.39h2.66c.872 0 1.583.71 1.583 1.583s-.71 1.584-1.584 1.584h-4.872a2.402 2.402 0 100 4.805h1.318v.963a2.403 2.403 0 004.805 0v-1.087c2.926-.583 5.138-3.17 5.138-6.265a6.396 6.396 0 00-6.389-6.389z"/>
    </g>
    <defs>
        <clipPath id="clip0">
            <path fill="#fff" d="M0 0h82v82H0z"/>
        </clipPath>
    </defs>
</svg>
