<svg xmlns="http://www.w3.org/2000/svg" fill="#FFC704" viewBox="0 0 24 24">
    <path d="M24 18.9c.1.4-.1.7-.4 1l-3.4 3.4c-.2.2-.4.3-.6.4-.2.1-.5.2-.7.2h-.5c-.3 0-.8-.1-1.6-.2-.7-.1-1.6-.4-2.6-.8S12 21.8 10.7 21 8 19 6.5 17.5c-1.2-1.2-2.2-2.3-2.9-3.4-.8-1.1-1.4-2.1-1.9-3-.5-.9-.8-1.7-1.1-2.5C.4 8 .2 7.4.1 6.8 0 6.3 0 5.9 0 5.6v-.5c0-.2.1-.5.2-.7.1-.2.3-.4.4-.6L4 .4c.3-.3.6-.4.9-.4.2 0 .4.1.6.2.2.1.3.3.4.5l2.7 5.2c.2.3.2.6.1.9 0 .2-.2.5-.4.7L7.1 8.8c-.1 0-.1.1-.1.1v.2c0 .4.2.8.4 1.2.2.4.5.9.9 1.5s1 1.3 1.8 2c.8.8 1.4 1.4 2 1.8.6.4 1.1.7 1.5 1 .4.2.7.3.9.4l.3.1h.2c.1 0 .1-.1.2-.1l1.4-1.5c.3-.3.7-.4 1.1-.4.3 0 .5.1.7.2l4.9 2.9c.4.1.6.4.7.7z"/>
</svg>
