<svg width="19" height="19" fill="none" xmlns="http://www.w3.org/2000/svg">
    <path d="M18.99 14.996a.918.918 0 01-.28.804l-2.676 2.655c-.12.134-.278.248-.472.342a1.953 1.953 0 01-.574.181 2.01 2.01 0 00-.12.01c-.067.007-.155.01-.262.01-.255 0-.667-.043-1.237-.13-.57-.088-1.267-.302-2.092-.644-.824-.342-1.76-.855-2.806-1.539-1.046-.684-2.159-1.622-3.339-2.816-.938-.925-1.716-1.81-2.333-2.655-.617-.845-1.113-1.626-1.488-2.343A12.621 12.621 0 01.466 6.92 10.352 10.352 0 01.084 5.41c-.067-.422-.094-.754-.08-.995.013-.242.02-.376.02-.403.026-.187.087-.378.18-.573.094-.194.208-.352.342-.473L3.222.292a.886.886 0 01.643-.281.75.75 0 01.463.15c.134.101.248.225.342.373l2.152 4.083c.12.214.154.449.1.704-.053.255-.167.47-.341.643l-.986.986a.336.336 0 00-.07.13c-.02.061-.03.111-.03.152.053.281.174.603.362.965.16.322.409.714.744 1.177.335.462.811.995 1.428 1.599.603.617 1.14 1.096 1.609 1.438.47.342.861.593 1.177.754.315.161.556.258.724.292l.251.05c.027 0 .07-.01.13-.03a.335.335 0 00.132-.07l1.146-1.167c.242-.215.523-.322.845-.322.228 0 .409.04.543.12h.02l3.882 2.294c.282.174.45.395.503.664z" fill="#FFC704"/>
</svg>
