<svg xmlns="http://www.w3.org/2000/svg" viewBox="0 0 79 79">
    <style>
        .st0{fill:#fff}
    </style>
    <path class="st0" d="M46.7 46.7H5.4V7.2h41.3v15.1l3.6.8V6.7c1.1-.6 1.8-1.8 1.8-3.1 0-2-1.6-3.6-3.6-3.6H3.6C1.6 0 0 1.6 0 3.6c0 1.3.7 2.5 1.8 3.1v41.8c0 1 .8 1.8 1.8 1.8h11.1L8.2 74.5c-.5 1.9.6 3.9 2.5 4.4.3.1.6.1.9.1 1.6 0 3-1.1 3.5-2.7L22 50.2h8l6.9 26.1c.4 1.6 1.9 2.7 3.5 2.7.3 0 .6 0 .9-.1 1.9-.5 3.1-2.5 2.5-4.4l-6.5-24.2h11.1c1 0 1.8-.8 1.8-1.8V37.7l-3.5-.7v9.7z"/>
    <path class="st0" d="M61.9 26.1c3.5 0 6.4-2.9 6.4-6.4 0-3.5-2.9-6.4-6.4-6.4-3.5 0-6.4 2.9-6.4 6.4.1 3.5 2.9 6.4 6.4 6.4z"/>
    <path class="st0" d="M78.8 47.2l-6.6-17.1c-.5-1.4-1.9-2.3-3.3-2.3h-3.5c-1 0-1.8.4-2.5 1.1l1.7 12.3-2.6 2.2-2.6-2.2L61 28.9c-.6-.6-1.5-1.1-2.5-1.1h-3.1l-20.6-4.4c-1.9-.4-3.8.8-4.3 2.8-.4 1.9.8 3.8 2.8 4.3L54.2 35c.2 0 .4.1.7.1v16.6l-1.4 23.6c-.1 2 1.4 3.7 3.4 3.8h.2c1.9 0 3.5-1.5 3.6-3.4l1.2-20.2 1.2 20.2c.1 1.9 1.7 3.4 3.6 3.4h.2c2-.1 3.5-1.8 3.4-3.8l-1.4-23.6v-10l3.2 8.2c.7 1.9 2.8 2.8 4.6 2.1 1.9-.9 2.8-3 2.1-4.8z"/>
    <path class="st0" d="M8.1 25.6v15.3c0 1 .8 1.8 1.8 1.8s1.8-.8 1.8-1.8V25.6c0-1-.8-1.8-1.8-1.8s-1.8.8-1.8 1.8z"/>
    <path class="st0" d="M16.2 13v27.8c0 1 .8 1.8 1.8 1.8s1.8-.8 1.8-1.8V13c0-1-.8-1.8-1.8-1.8s-1.8.8-1.8 1.8z"/>
    <path class="st0" d="M24.2 20.2v20.6c0 1 .8 1.8 1.8 1.8s1.8-.8 1.8-1.8V20.2c0-1-.8-1.8-1.8-1.8s-1.8.8-1.8 1.8z"/>
</svg>
