<svg xmlns="http://www.w3.org/2000/svg" width="33" height="33" fill="none">
    <style>
        .a{fill:#ffc704}
    </style>
    <g clip-path="url(#clip0)">
        <path d="M9.6 0h13.8c1.4 0 2.5 1.1 2.5 2.4v28.2c0 1.3-1.1 2.4-2.5 2.4H9.6c-1.4 0-2.5-1.1-2.5-2.4V2.4C7.1 1.1 8.2 0 9.6 0zm15.2 4.4H8.2v20.9h16.6V4.4zm-1.4-3.3H9.6c-.8 0-1.4.6-1.4 1.3v.9h16.6v-.9c0-.7-.6-1.3-1.4-1.3zM9.6 31.9h13.8c.8 0 1.4-.6 1.4-1.3v-4.2H8.2v4.2c0 .7.6 1.3 1.4 1.3z" class="a"/>
        <path d="M16.5 27c1.2 0 2.2.9 2.2 2.2 0 1.2-1 2.2-2.2 2.2-1.2 0-2.2-1-2.2-2.2 0-1.3 1-2.2 2.2-2.2zm0 3.3c.6 0 1.1-.5 1.1-1.1 0-.7-.5-1.1-1.1-1.1-.6 0-1.1.4-1.1 1.1 0 .6.5 1.1 1.1 1.1z" class="a"/>
        <path d="M18.7 2.7h-2.2c-.3 0-.5-.2-.5-.5s.2-.6.5-.6h2.2c.3 0 .6.3.6.6s-.3.5-.6.5z" class="a"/>
        <path d="M14.9 2.7h-.6c-.3 0-.5-.2-.5-.5s.2-.6.5-.6h.6c.3 0 .5.3.5.6s-.2.5-.5.5z" class="a"/>
        <path d="M1.9 2.5c.2-.2.5-.2.7 0 .3.2.3.6 0 .8-2 2-2 5.4 0 7.4.3.3.3.6 0 .8-.1.1-.2.2-.3.2-.2 0-.3-.1-.4-.2C-.6 9-.6 5 1.9 2.5z" class="a"/>
        <path d="M4.2 3.8c.2-.3.5-.3.8 0 .2.2.2.5 0 .7-.7.7-1.1 1.6-1.1 2.6S4.3 9 5 9.6c.2.3.2.6 0 .8-.2.1-.3.2-.4.2-.2 0-.3-.1-.4-.2-.9-.9-1.4-2-1.4-3.3 0-1.3.5-2.4 1.4-3.3z" class="a"/>
        <path d="M30.4 3.3c-.3-.2-.3-.6 0-.8.2-.2.5-.2.7 0 2.5 2.5 2.5 6.5 0 9-.1.1-.2.2-.4.2-.1 0-.2-.1-.3-.2-.3-.2-.3-.5 0-.8 2-2 2-5.4 0-7.4z" class="a"/>
        <path d="M28 3.6c.3-.2.6-.2.8 0 .9.9 1.4 2.1 1.4 3.3 0 1.3-.5 2.5-1.4 3.4-.1.1-.2.1-.4.1-.1 0-.2 0-.4-.1-.2-.2-.2-.6 0-.8.7-.7 1.1-1.6 1.1-2.6 0-.9-.4-1.8-1.1-2.5-.2-.2-.2-.6 0-.8z" class="a"/>
    </g>
</svg>
