<svg xmlns="http://www.w3.org/2000/svg" viewBox="0 0 24 24">
    <style>
        .st0{fill:#ffc704}
    </style>
    <path class="st0" d="M17 0H7C6 0 5.2.8 5.2 1.8v20.5c0 .9.8 1.7 1.8 1.7h10c1 0 1.8-.8 1.8-1.8V1.8C18.8.8 18 0 17 0zM6 3.2h12v15.2H6V3.2zM7 .8h10c.5 0 1 .4 1 1v.6H6v-.6c0-.6.4-1 1-1zm10 22.4H7c-.5 0-1-.4-1-1v-3h12v3c0 .6-.4 1-1 1z"/>
    <path class="st0" d="M12 19.6c-.9 0-1.6.7-1.6 1.6s.7 1.6 1.6 1.6c.9 0 1.6-.7 1.6-1.6s-.7-1.6-1.6-1.6zm0 2.4c-.4 0-.8-.4-.8-.8s.4-.8.8-.8.8.4.8.8-.4.8-.8.8z"/>
    <path class="st0" d="M10.4 2H12c.2 0 .4-.2.4-.4s-.2-.4-.4-.4h-1.6c-.2 0-.4.2-.4.4s.2.4.4.4z"/>
    <path class="st0" d="M13.2 2h.4c.2 0 .4-.2.4-.4s-.2-.4-.4-.4h-.4c-.2 0-.4.2-.4.4s.2.4.4.4z"/>
    <path class="st0" d="M22.6 1.8c-.2-.2-.4-.2-.6 0s-.2.4 0 .6c1.5 1.5 1.5 3.9 0 5.4-.2.2-.2.4 0 .6.1.1.2.1.3.1s.2 0 .3-.1c1.9-1.8 1.9-4.8 0-6.6z"/>
    <path class="st0" d="M21 2.7c-.2-.2-.4-.2-.6 0s-.2.4 0 .6c.5.5.8 1.2.8 1.9s-.3 1.3-.8 1.8c-.2.2-.2.4 0 .6.1.1.2.1.3.1.1 0 .2 0 .3-.1.6-.6 1-1.5 1-2.4s-.4-1.8-1-2.5z"/>
    <path class="st0" d="M1.9 2.4c.2-.2.2-.4 0-.6s-.4-.2-.6 0c-1.8 1.8-1.8 4.7 0 6.6.1.1.2.1.3.1.1 0 .2 0 .3-.1.2-.2.2-.4 0-.6C.4 6.3.4 3.9 1.9 2.4z"/>
    <path class="st0" d="M3.6 2.6c-.2-.1-.4-.1-.6 0-.6.7-1 1.5-1 2.4s.4 1.8 1 2.4c.1.1.2.1.3.1.1 0 .2 0 .3-.1.2-.2.2-.4 0-.6-.5-.4-.8-1-.8-1.8s.3-1.4.8-1.9c.2-.1.2-.3 0-.5z"/>
</svg>
