<svg width="89" height="89" fill="none" xmlns="http://www.w3.org/2000/svg">
    <g clip-path="url(#clip0)" fill="#fff">
        <path d="M42.163 37.421l1.132-7.29-.57-.918a.334.334 0 01.036-.405l1.486-1.606a.347.347 0 01.492 0l1.487 1.605a.334.334 0 01.036.406l-.57.918 1.132 7.288c8.943-.15 14.359-1.17 14.359-2.234 0-5.198-3.534-5.427-7.46-6.71-2.42-.787-5.42-1.23-4.776-5.4 1.594-1.457 2.149-4.458 2.149-4.458s2.123-1.07 2.367-3.119c.18-1.562-.636-2.287-.636-2.287v-1.98c0-4.413-3.78-7.887-8.326-7.887-4.548 0-8.328 3.474-8.328 7.886v1.98s-.814.726-.634 2.288c.242 2.049 2.365 3.119 2.365 3.119s.557 3.003 2.151 4.459c.64 4.168-2.357 4.612-4.777 5.398-3.93 1.284-7.46 1.513-7.46 6.71-.012 1.063 5.401 2.086 14.345 2.237z"/>
        <path d="M25.907 76.711c-2.42-.788-5.42-1.229-4.777-5.402 1.594-1.458 2.15-4.457 2.15-4.457s2.121-1.067 2.365-3.117c.18-1.564-.634-2.29-.634-2.29v-1.978c0-4.412-3.78-7.888-8.327-7.888-4.549 0-8.328 3.476-8.328 7.888v1.979s-.814.725-.634 2.289c.242 2.049 2.365 3.117 2.365 3.117s.556 3 2.15 4.457c.64 4.17-2.357 4.614-4.777 5.402C3.531 77.991 0 78.224 0 83.42c0 1.064 5.414 2.088 14.358 2.238l1.133-7.29-.57-.92a.331.331 0 01.036-.404l1.486-1.61a.354.354 0 01.492 0l1.487 1.61a.331.331 0 01.036.404l-.57.918 1.132 7.288c8.943-.148 14.359-1.172 14.359-2.236-.012-5.194-3.545-5.427-7.472-6.707z"/>
        <path d="M81.528 76.711c-2.418-.788-5.417-1.229-4.775-5.402 1.594-1.458 2.15-4.457 2.15-4.457s2.122-1.067 2.366-3.117c.18-1.564-.635-2.29-.635-2.29v-1.978c0-4.412-3.779-7.888-8.327-7.888-4.546 0-8.326 3.476-8.326 7.888v1.979s-.816.725-.634 2.289c.242 2.049 2.365 3.117 2.365 3.117s.557 3 2.15 4.457c.64 4.17-2.355 4.614-4.776 5.402-3.928 1.282-7.459 1.513-7.459 6.709 0 1.064 5.414 2.088 14.358 2.238l1.135-7.29-.572-.919a.334.334 0 01.036-.403l1.486-1.61a.354.354 0 01.493 0l1.486 1.61a.331.331 0 01.038.403l-.57.919 1.132 7.288c8.943-.148 14.359-1.172 14.359-2.236-.02-5.196-3.553-5.429-7.48-6.709z"/>
        <path d="M57.746 68.783c.638 0 1.27-.275 1.71-.803a2.22 2.22 0 00-.286-3.132L46.716 54.483v-12.21a2.225 2.225 0 10-4.45 0v12.21L29.814 64.848a2.223 2.223 0 102.846 3.416l11.833-9.844 11.832 9.844c.415.349.916.52 1.422.52z"/>
    </g>
    <defs>
        <clipPath id="clip0">
            <path fill="#fff" d="M0 0h89v89H0z"/>
        </clipPath>
    </defs>
</svg>
