<svg xmlns="http://www.w3.org/2000/svg" viewBox="0 0 24 24">
    <path fill="#FFF" d="M7.5 9.5c0-1.4 1-1.5 2-1.8.7-.2 1.5-.3 1.3-1.5-.4-.4-.6-1.2-.6-1.2s-.6-.3-.6-.8c0-.4.2-.6.2-.6v-.5c0-1.2 1-2.1 2.2-2.1 1.2 0 2.2.9 2.2 2.1v.5s.2.2.2.6c0 .5-.6.8-.6.8s-.1.8-.6 1.2c-.2 1.1.6 1.2 1.3 1.5 1.1.3 2 .4 2 1.8 0 .3-1.5.6-3.9.6l-.3-2 .2-.2v-.1l-.4-.4H12l-.4.4v.1l.2.2-.3 2c-2.5 0-4-.3-4-.6zM7 20.7c-.7-.2-1.5-.3-1.3-1.5.4-.4.6-1.2.6-1.2s.6-.3.6-.8c0-.4-.2-.6-.2-.6v-.5c0-1.2-1-2.1-2.2-2.1-1.2 0-2.2.9-2.2 2.1v.5s-.3.2-.2.6c0 .5.6.8.6.8s.2.8.6 1.2c.2 1.1-.6 1.2-1.3 1.5-1 .3-2 .4-2 1.8 0 .3 1.5.6 3.9.6l.3-2-.2-.2v-.1l.4-.4h.1l.5.4v.1l-.2.2.3 2c2.4 0 3.9-.3 3.9-.6 0-1.4-1-1.5-2-1.8zm15 0c-.7-.2-1.5-.3-1.3-1.5.4-.4.6-1.2.6-1.2s.6-.3.6-.8c0-.4-.2-.6-.2-.6v-.5c0-1.2-1-2.1-2.2-2.1-1.2 0-2.2.9-2.2 2.1v.5s-.2.2-.2.6c.1.6.6.8.6.8s.2.8.6 1.2c.2 1.1-.6 1.2-1.3 1.5-1.1.3-2 .4-2 1.8 0 .3 1.5.6 3.9.6l.3-2-.2-.2v-.1l.4-.4h.1l.4.4v.1l-.2.2.3 2c2.4 0 3.9-.3 3.9-.6.1-1.4-.9-1.5-1.9-1.8zm-6.4-2.2c.2 0 .3-.1.5-.2.2-.3.2-.6-.1-.8l-3.4-2.8v-3.3c0-.3-.3-.6-.6-.6s-.6.3-.6.6v3.3L8 17.5c-.3.2-.3.6-.1.8.2.3.6.3.8.1l3.2-2.7 3.2 2.7c.2.1.3.1.5.1z"/>
</svg>
