<svg width="79" height="79" viewBox="0 0 79 79" fill="none" xmlns="http://www.w3.org/2000/svg">
<path d="M46.6671 46.6789H5.38545V7.19063H46.6671V22.2864L50.2591 23.0528V6.6931C51.3298 6.07119 52.0526 4.92653 52.0526 3.60202C52.0526 1.62029 50.4457 0.0117188 48.4623 0.0117188H3.5903C1.60689 0.0117187 0 1.62029 0 3.60202C0 4.92821 0.726128 6.07119 1.79515 6.6931V48.474C1.79515 49.464 2.5986 50.2692 3.58862 50.2692H14.6503L8.19583 74.4701C7.68653 76.3846 8.82447 78.3545 10.7406 78.8655C11.0516 78.9478 11.3626 78.9882 11.6685 78.9882C13.2535 78.9882 14.7074 77.9276 15.1361 76.3224L22.0847 50.2692H29.9679L36.9165 76.3224C37.3451 77.9276 38.7957 78.9882 40.3824 78.9882C40.69 78.9882 40.9993 78.9495 41.312 78.8655C43.2281 78.3545 44.3644 76.3846 43.8568 74.4717L37.4023 50.2708H48.464C49.4557 50.2708 50.2574 49.4657 50.2574 48.4757V37.7401L46.6655 36.972V46.6789H46.6671Z" fill="white"/>
<path d="M61.936 26.053C65.4523 26.053 68.3115 23.1989 68.3115 19.6809C68.3115 16.1595 65.4523 13.3071 61.936 13.3071C58.4214 13.3071 55.5639 16.1579 55.5639 19.6809C55.5639 23.1989 58.4214 26.053 61.936 26.053Z" fill="white"/>
<path d="M78.7563 47.1898L72.164 30.1258C71.6345 28.7425 70.3016 27.8298 68.8191 27.8298H65.3162C64.3312 27.8298 63.4706 28.2601 62.8285 28.9072L64.4993 41.1758L61.936 43.3491L59.3761 41.1758L61.0468 28.9072C60.3997 28.2601 59.5408 27.8298 58.5558 27.8298H55.4345L34.8541 23.4327C32.9161 23.0192 31.0083 24.2563 30.5932 26.1943C30.1797 28.134 31.4151 30.0418 33.3548 30.4553L54.3033 34.9297C54.5201 34.9768 54.7436 35.002 54.9655 35.007V51.6122L53.5923 75.1861C53.4813 77.1645 54.989 78.8621 56.9708 78.9781C57.0397 78.9831 57.112 78.9848 57.1809 78.9848C59.0685 78.9848 60.6485 77.5124 60.7628 75.6029L61.941 55.384L63.1176 75.6029C63.2286 77.5124 64.8136 78.9848 66.7012 78.9848C66.7701 78.9848 66.8424 78.9831 66.9113 78.9781C68.8914 78.8621 70.4008 77.1645 70.2865 75.1861L68.9149 51.6122V41.6145L72.0682 49.7767C72.7825 51.629 74.8651 52.5433 76.7124 51.8323C78.5529 51.118 79.4723 49.0405 78.7563 47.1898Z" fill="white"/>
<path d="M8.07817 25.591V40.8481C8.07817 41.8398 8.88162 42.6433 9.87164 42.6433C10.865 42.6433 11.6668 41.8382 11.6668 40.8481V25.591C11.6668 24.601 10.8633 23.7959 9.87164 23.7959C8.87994 23.7959 8.07817 24.5993 8.07817 25.591Z" fill="white"/>
<path d="M16.153 13.0251V40.8466C16.153 41.84 16.9564 42.6417 17.9481 42.6417C18.9398 42.6417 19.7416 41.8383 19.7416 40.8466V13.0251C19.7416 12.0334 18.9381 11.23 17.9481 11.23C16.9564 11.23 16.153 12.0334 16.153 13.0251Z" fill="white"/>
<path d="M24.2312 20.2024V40.8466C24.2312 41.84 25.0346 42.6417 26.0246 42.6417C27.018 42.6417 27.8198 41.8383 27.8198 40.8466V20.2024C27.8198 19.2107 27.0163 18.4072 26.0246 18.4072C25.0346 18.4072 24.2312 19.2107 24.2312 20.2024Z" fill="white"/>
</svg>
