<svg xmlns="http://www.w3.org/2000/svg" viewBox="0 0 24 24"><style type="text/css">
	.st0{fill:#FFFFFF;}
</style><path class="st0" d="M11.5 11.5c0 0.3 0.2 0.5 0.5 0.5 0.3 0 0.5-0.2 0.5-0.5 0-0.6 0.2-1.3 0.6-1.7 0.9-1.1 1.6-2.3 2-3.5 0.1-0.2 0-0.4-0.1-0.5 -0.1-0.1-0.3-0.2-0.4-0.2H9.3c-0.2 0-0.3 0.1-0.4 0.2C8.7 5.9 8.7 6 8.8 6.2c0.4 1.2 1.1 2.4 2 3.5C11.2 10.2 11.5 10.8 11.5 11.5z"/><path class="st0" d="M12.5 13.6c0-0.3-0.2-0.5-0.5-0.5 -0.3 0-0.5 0.2-0.5 0.5 0 0.8-0.5 1.6-1.3 2.2 -1.8 1.3-3.2 2.8-4.1 4.4 -0.1 0.2-0.1 0.4 0 0.5C6.2 20.9 6.4 21 6.5 21h10.9c0.2 0 0.4-0.1 0.5-0.3 0.1-0.2 0.1-0.4 0-0.5 -0.9-1.5-2.2-3-4.1-4.4C13 15.2 12.5 14.4 12.5 13.6z"/><path class="st0" d="M21.5 21.8h-0.3c-0.4-4.2-2.9-7.5-4.8-9.8 1.9-2.3 4.4-5.6 4.8-9.8h0.3c0.6 0 1.1-0.5 1.1-1.1S22.1 0 21.5 0H2.5C1.9 0 1.4 0.5 1.4 1.1c0 0.6 0.5 1.1 1.1 1.1h0.3C3.2 6.4 5.6 9.7 7.6 12c-1.9 2.3-4.4 5.6-4.8 9.8H2.5c-0.6 0-1.1 0.5-1.1 1.1 0 0.6 0.5 1.1 1.1 1.1h1.4 16.4 1.4c0.6 0 1.1-0.5 1.1-1.1C22.6 22.3 22.1 21.8 21.5 21.8zM5 21.8c0.4-3.8 2.9-6.8 4.8-9l0.1-0.1c0.3-0.4 0.3-1 0-1.4l-0.1-0.1C7.9 9 5.4 6 5 2.2H19c-0.4 3.8-2.9 6.8-4.8 9l-0.1 0.1c-0.3 0.4-0.3 1 0 1.4l0.1 0.1c1.9 2.2 4.4 5.2 4.8 9H5z"/></svg>
