<svg width="77" height="77" viewBox="0 0 77 77" fill="none" xmlns="http://www.w3.org/2000/svg">
<g clip-path="url(#clip0)">
<path d="M36.7495 36.7444C36.7495 37.7127 37.5343 38.4925 38.4992 38.4925C39.4641 38.4925 40.2489 37.7077 40.2489 36.7444C40.2505 34.6966 40.9779 32.7061 42.2983 31.1399C45.2357 27.657 47.4376 23.8808 48.8317 19.9162C49.0201 19.3805 48.9382 18.7874 48.6106 18.3238C48.2813 17.8602 47.7505 17.585 47.182 17.585H29.8148C29.2463 17.585 28.7138 17.8602 28.3846 18.3238C28.0569 18.7874 27.975 19.3805 28.1634 19.9162C29.5608 23.8808 31.7594 27.657 34.6968 31.1399C36.0189 32.7061 36.7479 34.6983 36.7495 36.7444Z" fill="white"/>
<path d="M40.2488 43.7583C40.2488 42.7917 39.4641 42.0103 38.4992 42.0103C37.5342 42.0103 36.7495 42.795 36.7495 43.7583C36.7479 46.2845 35.239 48.7828 32.5015 50.8094C26.6463 55.1327 22.264 59.8296 19.4756 64.7674C19.1693 65.3113 19.1742 65.9731 19.4904 66.5072C19.8017 67.0462 20.3783 67.3755 21.0009 67.3755H56.0007C56.6216 67.3755 57.1967 67.0462 57.5112 66.5072C57.8241 65.9731 57.829 65.3113 57.5243 64.7674C54.7376 59.8296 50.3536 55.1327 44.5001 50.8094C41.7593 48.7828 40.2505 46.2845 40.2488 43.7583Z" fill="white"/>
<path d="M69.1216 70.0013H68.0747C66.8722 56.3825 58.8972 45.9271 52.698 38.5008C58.8988 31.0762 66.8706 20.6192 68.078 7.0003H69.1248C71.058 7.0003 72.6242 5.43248 72.6242 3.49933C72.6242 1.56618 71.058 0 69.1248 0H7.87512C5.94197 0 4.37579 1.56782 4.37579 3.49933C4.37579 5.43248 5.94197 7.0003 7.87512 7.0003H8.92197C10.1261 20.6208 18.0979 31.0778 24.2987 38.5008C18.0995 45.9254 10.1261 56.3808 8.92033 70.0013H7.87512C5.94197 70.0013 4.37579 71.5659 4.37579 73.499C4.37579 75.4338 5.94197 77.0016 7.87512 77.0016H12.2509H64.7474H69.1248C71.058 77.0016 72.6242 75.4338 72.6242 73.499C72.6242 71.5659 71.0564 70.0013 69.1216 70.0013ZM15.937 70.0013C17.2525 57.6963 25.2522 48.2206 31.2302 41.1401L31.5497 40.7616C32.6506 39.4592 32.6506 37.5523 31.5497 36.2482L31.2318 35.8714C25.2555 28.7892 17.2525 19.3135 15.937 7.00685H61.0613C59.7458 19.3135 51.7429 28.7892 45.7665 35.8714L45.4503 36.2482C44.3494 37.5506 44.3494 39.4576 45.4503 40.7616L45.7698 41.1401C51.7462 48.2206 59.7458 57.6963 61.0613 70.0013H15.937Z" fill="white"/>
</g>
<defs>
<clipPath id="clip0">
<rect width="77" height="77" fill="white"/>
</clipPath>
</defs>
</svg>
