<svg width="82" height="82" viewBox="0 0 82 82" fill="none" xmlns="http://www.w3.org/2000/svg">
<g clip-path="url(#clip0)">
<path d="M54.7647 33.9531C53.0868 33.9531 51.4483 34.127 49.8668 34.4554L38.6721 27.8559V2.4023C38.6721 1.38943 38.0365 0.484799 37.0831 0.141965C36.1296 -0.20087 35.0636 0.0906648 34.418 0.871427L3.75367 37.9632C3.26319 38.5563 3.08677 39.349 3.27945 40.0947C3.47214 40.8404 4.01017 41.4479 4.72712 41.73L20.2022 47.8116V76.3413C20.2022 77.3542 20.8378 78.2588 21.7906 78.6016C22.0571 78.6974 22.3318 78.7437 22.6039 78.7437C23.3065 78.7437 23.9903 78.4346 24.4557 77.8722L32.822 67.7523C36.5732 76.1405 44.997 82 54.7647 82C68.0114 82 78.7881 71.2232 78.7881 57.9765C78.7881 44.7298 68.0114 33.9531 54.7647 33.9531ZM25.0063 69.6648V46.1744C25.0063 45.1865 24.4019 44.2994 23.4829 43.9384L9.56871 38.47L33.8668 9.07881V29.2285C33.8668 30.0793 34.3166 30.8663 35.0492 31.298L43.9354 36.5368C36.114 40.5032 30.7412 48.6236 30.7412 57.9765C30.7412 59.4398 30.8733 60.8725 31.1247 62.2638L25.0063 69.6648ZM54.7647 77.1953C44.1675 77.1953 35.5459 68.5737 35.5459 57.9765C35.5459 47.3793 44.1675 38.7578 54.7647 38.7578C65.3619 38.7578 73.9834 47.3793 73.9834 57.9765C73.9834 68.5737 65.3619 77.1953 54.7647 77.1953Z" fill="white"/>
<path d="M56.0941 55.5744H53.4346C52.5613 55.5744 51.8512 54.8637 51.8512 53.9904C51.8512 53.1176 52.5613 52.4069 53.4346 52.4069H58.3069C59.6338 52.4069 60.7092 51.3309 60.7092 50.0046C60.7092 48.6777 59.6338 47.6022 58.3069 47.6022H57.3447V46.6382C57.3447 45.3113 56.2693 44.2358 54.9423 44.2358C53.616 44.2358 52.54 45.3113 52.54 46.6382V47.6661C49.4401 48.1027 47.0465 50.7716 47.0465 53.9904C47.0465 57.5132 49.9124 60.3791 53.4346 60.3791H56.0941C56.9674 60.3791 57.6781 61.0898 57.6781 61.9631C57.6781 62.8365 56.9674 63.5472 56.0941 63.5472H51.2218C49.8949 63.5472 48.8195 64.6226 48.8195 65.9495C48.8195 67.2764 49.8949 68.3519 51.2218 68.3519H52.54V69.3153C52.54 70.6422 53.616 71.7177 54.9423 71.7177C56.2693 71.7177 57.3447 70.6422 57.3447 69.3153V68.228C60.2707 67.6449 62.4828 65.058 62.4828 61.9631C62.4828 58.4403 59.6169 55.5744 56.0941 55.5744Z" fill="white"/>
</g>
<defs>
<clipPath id="clip0">
<rect width="82" height="82" fill="white"/>
</clipPath>
</defs>
</svg>
