<svg xmlns="http://www.w3.org/2000/svg" viewBox="0 0 24 24"><style type="text/css">
	.st0{fill:#FFFFFF;}
</style><path class="st0" d="M16 9.9c-0.5 0-1 0.1-1.4 0.1l-3.3-1.9V0.7c0-0.3-0.2-0.6-0.5-0.7s-0.6 0-0.8 0.2l-9 10.9C1 11.3 0.9 11.5 1 11.7 1 12 1.2 12.1 1.4 12.2L5.9 14v8.4c0 0.3 0.2 0.6 0.5 0.7 0.1 0 0.2 0 0.2 0C6.8 23 7 23 7.2 22.8l2.4-3c1.1 2.5 3.6 4.2 6.4 4.2 3.9 0 7-3.2 7-7C23.1 13.1 19.9 9.9 16 9.9zM9.1 18.2l-1.8 2.2v-6.9c0-0.3-0.2-0.5-0.4-0.7l-4.1-1.6 7.1-8.6v5.9c0 0.2 0.1 0.5 0.3 0.6l2.6 1.5C10.6 11.9 9 14.2 9 17 9 17.4 9 17.8 9.1 18.2zM16 22.6c-3.1 0-5.6-2.5-5.6-5.6 0-3.1 2.5-5.6 5.6-5.6s5.6 2.5 5.6 5.6C21.7 20.1 19.1 22.6 16 22.6z"/><path class="st0" d="M16.4 16.3h-0.8c-0.3 0-0.5-0.2-0.5-0.5 0-0.3 0.2-0.5 0.5-0.5h1.4c0.4 0 0.7-0.3 0.7-0.7 0-0.4-0.3-0.7-0.7-0.7h-0.3v-0.3c0-0.4-0.3-0.7-0.7-0.7 -0.4 0-0.7 0.3-0.7 0.7V14c-0.9 0.1-1.6 0.9-1.6 1.9 0 1 0.8 1.9 1.9 1.9h0.8c0.3 0 0.5 0.2 0.5 0.5 0 0.3-0.2 0.5-0.5 0.5H15c-0.4 0-0.7 0.3-0.7 0.7 0 0.4 0.3 0.7 0.7 0.7h0.4v0.3c0 0.4 0.3 0.7 0.7 0.7 0.4 0 0.7-0.3 0.7-0.7V20c0.9-0.2 1.5-0.9 1.5-1.8C18.3 17.1 17.4 16.3 16.4 16.3z"/></svg>
