<svg width="19" height="19" viewBox="0 0 19 19" fill="none" xmlns="http://www.w3.org/2000/svg">
<path d="M18.9909 14.9956C19.0312 15.3041 18.9372 15.5723 18.7093 15.8002L16.0342 18.4551C15.9135 18.5892 15.756 18.7033 15.5615 18.7971C15.3671 18.891 15.176 18.9513 14.9884 18.9781C14.975 18.9781 14.9346 18.9816 14.8676 18.9883C14.8006 18.9949 14.7135 18.9984 14.6062 18.9984C14.3513 18.9984 13.939 18.9548 13.3691 18.8676C12.7992 18.7804 12.1019 18.5658 11.2773 18.2239C10.4525 17.882 9.51725 17.369 8.47136 16.6852C7.42547 16.0014 6.31246 15.0627 5.13244 13.8693C4.19379 12.944 3.41605 12.059 2.79923 11.2143C2.1824 10.3694 1.68625 9.58834 1.31079 8.87094C0.935299 8.15354 0.653704 7.50319 0.465973 6.91989C0.278243 6.33658 0.150855 5.83373 0.0838081 5.41134C0.0167616 4.98895 -0.010057 4.65707 0.00335233 4.4157C0.0167616 4.17433 0.0234663 4.04024 0.0234663 4.01342C0.0502849 3.82569 0.110627 3.63461 0.204492 3.44017C0.298357 3.24574 0.412336 3.08818 0.546429 2.96749L3.22159 0.292338C3.40932 0.104607 3.62386 0.0107422 3.86523 0.0107422C4.03955 0.0107422 4.19376 0.0610271 4.32785 0.161597C4.46195 0.262167 4.57592 0.386203 4.66979 0.533705L6.82198 4.61684C6.94267 4.83139 6.97619 5.06605 6.92255 5.32083C6.86892 5.5756 6.75494 5.79015 6.58062 5.96448L5.59503 6.95006C5.56821 6.97688 5.54475 7.02046 5.52463 7.0808C5.50452 7.14114 5.49446 7.19143 5.49446 7.23165C5.5481 7.51325 5.66878 7.83507 5.85651 8.19713C6.01743 8.51895 6.2655 8.91117 6.60073 9.37379C6.93596 9.83641 7.41199 10.3694 8.02882 10.9728C8.63224 11.5897 9.16861 12.069 9.63794 12.411C10.1072 12.7528 10.4995 13.0044 10.8146 13.1653C11.1298 13.3262 11.3711 13.4234 11.5387 13.4568L11.7901 13.5071C11.8169 13.5071 11.8606 13.4971 11.9208 13.477C11.9812 13.4568 12.0248 13.4334 12.0516 13.4065L13.1981 12.2399C13.4396 12.0254 13.721 11.9181 14.0429 11.9181C14.2709 11.9181 14.4518 11.9583 14.5859 12.0388H14.606L18.488 14.3318C18.7697 14.5063 18.9373 14.7275 18.9909 14.9956Z" fill="#FFC704"/>
</svg>
