<svg xmlns="http://www.w3.org/2000/svg" fill="#FFC704" viewBox="0 0 24 24"><path d="M24 18.9c0.1 0.4-0.1 0.7-0.4 1l-3.4 3.4c-0.2 0.2-0.4 0.3-0.6 0.4 -0.2 0.1-0.5 0.2-0.7 0.2 0 0-0.1 0-0.2 0 -0.1 0-0.2 0-0.3 0 -0.3 0-0.8-0.1-1.6-0.2 -0.7-0.1-1.6-0.4-2.6-0.8 -1-0.4-2.2-1.1-3.5-1.9S8 19 6.5 17.5c-1.2-1.2-2.2-2.3-2.9-3.4 -0.8-1.1-1.4-2.1-1.9-3 -0.5-0.9-0.8-1.7-1.1-2.5C0.4 8 0.2 7.4 0.1 6.8 0 6.3 0 5.9 0 5.6c0-0.3 0-0.5 0-0.5 0-0.2 0.1-0.5 0.2-0.7 0.1-0.2 0.3-0.4 0.4-0.6l3.4-3.4C4.3 0.1 4.6 0 4.9 0c0.2 0 0.4 0.1 0.6 0.2 0.2 0.1 0.3 0.3 0.4 0.5l2.7 5.2c0.2 0.3 0.2 0.6 0.1 0.9C8.7 7 8.5 7.3 8.3 7.5L7.1 8.8C7 8.8 7 8.9 7 8.9c0 0.1 0 0.1 0 0.2C7 9.5 7.2 9.9 7.4 10.3c0.2 0.4 0.5 0.9 0.9 1.5 0.4 0.6 1 1.3 1.8 2 0.8 0.8 1.4 1.4 2 1.8 0.6 0.4 1.1 0.7 1.5 1 0.4 0.2 0.7 0.3 0.9 0.4l0.3 0.1c0 0 0.1 0 0.2 0 0.1 0 0.1-0.1 0.2-0.1l1.4-1.5c0.3-0.3 0.7-0.4 1.1-0.4 0.3 0 0.5 0.1 0.7 0.2h0l4.9 2.9C23.7 18.3 23.9 18.6 24 18.9z"/></svg>
