<svg xmlns="http://www.w3.org/2000/svg" width="33" height="33" viewBox="0 0 33 33" fill="none"><style>.a{fill:#FFC704;}</style><g clip-path="url(#clip0)"><path d="M9.6 0L23.4 0C24.8 0 25.9 1.1 25.9 2.4L25.9 30.6C25.9 31.9 24.8 33 23.4 33L9.6 33C8.2 33 7.1 31.9 7.1 30.6L7.1 2.4C7.1 1.1 8.2 0 9.6 0ZM24.8 4.4L8.2 4.4 8.2 25.3 24.8 25.3 24.8 4.4ZM23.4 1.1L9.6 1.1C8.8 1.1 8.2 1.7 8.2 2.4V3.3L24.8 3.3V2.4C24.8 1.7 24.2 1.1 23.4 1.1ZM9.6 31.9L23.4 31.9C24.2 31.9 24.8 31.3 24.8 30.6V26.4L8.2 26.4V30.6C8.2 31.3 8.8 31.9 9.6 31.9Z" class="a"/><path d="M16.5 27C17.7 27 18.7 27.9 18.7 29.2 18.7 30.4 17.7 31.4 16.5 31.4 15.3 31.4 14.3 30.4 14.3 29.2 14.3 27.9 15.3 27 16.5 27ZM16.5 30.3C17.1 30.3 17.6 29.8 17.6 29.2 17.6 28.5 17.1 28.1 16.5 28.1 15.9 28.1 15.4 28.5 15.4 29.2 15.4 29.8 15.9 30.3 16.5 30.3Z" class="a"/><path d="M18.7 2.7L16.5 2.7C16.2 2.7 16 2.5 16 2.2 16 1.9 16.2 1.6 16.5 1.6L18.7 1.6C19 1.6 19.3 1.9 19.3 2.2 19.3 2.5 19 2.7 18.7 2.7Z" class="a"/><path d="M14.9 2.7H14.3C14 2.7 13.8 2.5 13.8 2.2 13.8 1.9 14 1.6 14.3 1.6H14.9C15.2 1.6 15.4 1.9 15.4 2.2 15.4 2.5 15.2 2.7 14.9 2.7Z" class="a"/><path d="M1.9 2.5C2.1 2.3 2.4 2.3 2.6 2.5 2.9 2.7 2.9 3.1 2.6 3.3 0.6 5.3 0.6 8.7 2.6 10.7 2.9 11 2.9 11.3 2.6 11.5 2.5 11.6 2.4 11.7 2.3 11.7 2.1 11.7 2 11.6 1.9 11.5 -0.6 9-0.6 5 1.9 2.5Z" class="a"/><path d="M4.2 3.8C4.4 3.5 4.7 3.5 5 3.8 5.2 4 5.2 4.3 5 4.5 4.3 5.2 3.9 6.1 3.9 7.1 3.9 8.1 4.3 9 5 9.6 5.2 9.9 5.2 10.2 5 10.4 4.8 10.5 4.7 10.6 4.6 10.6 4.4 10.6 4.3 10.5 4.2 10.4 3.3 9.5 2.8 8.4 2.8 7.1 2.8 5.8 3.3 4.7 4.2 3.8Z" class="a"/><path d="M30.4 3.3C30.1 3.1 30.1 2.7 30.4 2.5 30.6 2.3 30.9 2.3 31.1 2.5 33.6 5 33.6 9 31.1 11.5 31 11.6 30.9 11.7 30.7 11.7 30.6 11.7 30.5 11.6 30.4 11.5 30.1 11.3 30.1 11 30.4 10.7 32.4 8.7 32.4 5.3 30.4 3.3Z" class="a"/><path d="M28 3.6C28.3 3.4 28.6 3.4 28.8 3.6 29.7 4.5 30.2 5.7 30.2 6.9 30.2 8.2 29.7 9.4 28.8 10.3 28.7 10.4 28.6 10.4 28.4 10.4 28.3 10.4 28.2 10.4 28 10.3 27.8 10.1 27.8 9.7 28 9.5 28.7 8.8 29.1 7.9 29.1 6.9 29.1 6 28.7 5.1 28 4.4 27.8 4.2 27.8 3.8 28 3.6Z" class="a"/></g><defs><clipPath><rect width="33" height="33" transform="matrix(-1 0 0 1 33 0)" fill="white"/></clipPath></defs></svg>
