<svg xmlns="http://www.w3.org/2000/svg" viewBox="0 0 24 24"><style type="text/css">
	.st0{fill:#FFC704;}
</style><path class="st0" d="M17 0H7C6 0 5.2 0.8 5.2 1.8v20.5C5.2 23.2 6 24 7 24H17c1 0 1.8-0.8 1.8-1.8V1.8C18.8 0.8 18 0 17 0zM6 3.2h12v15.2H6V3.2zM7 0.8H17c0.5 0 1 0.4 1 1v0.6H6V1.8C6 1.2 6.4 0.8 7 0.8zM17 23.2H7c-0.5 0-1-0.4-1-1v-3h12v3C18 22.8 17.6 23.2 17 23.2z"/><path class="st0" d="M12 19.6c-0.9 0-1.6 0.7-1.6 1.6s0.7 1.6 1.6 1.6c0.9 0 1.6-0.7 1.6-1.6S12.9 19.6 12 19.6zM12 22c-0.4 0-0.8-0.4-0.8-0.8s0.4-0.8 0.8-0.8c0.4 0 0.8 0.4 0.8 0.8S12.4 22 12 22z"/><path class="st0" d="M10.4 2H12c0.2 0 0.4-0.2 0.4-0.4S12.2 1.2 12 1.2h-1.6c-0.2 0-0.4 0.2-0.4 0.4S10.2 2 10.4 2z"/><path class="st0" d="M13.2 2h0.4C13.8 2 14 1.8 14 1.6s-0.2-0.4-0.4-0.4h-0.4c-0.2 0-0.4 0.2-0.4 0.4S13 2 13.2 2z"/><path class="st0" d="M22.6 1.8c-0.2-0.2-0.4-0.2-0.6 0s-0.2 0.4 0 0.6c1.5 1.5 1.5 3.9 0 5.4 -0.2 0.2-0.2 0.4 0 0.6 0.1 0.1 0.2 0.1 0.3 0.1s0.2 0 0.3-0.1C24.5 6.6 24.5 3.6 22.6 1.8z"/><path class="st0" d="M21 2.7c-0.2-0.2-0.4-0.2-0.6 0s-0.2 0.4 0 0.6c0.5 0.5 0.8 1.2 0.8 1.9S20.9 6.5 20.4 7c-0.2 0.2-0.2 0.4 0 0.6 0.1 0.1 0.2 0.1 0.3 0.1 0.1 0 0.2 0 0.3-0.1 0.6-0.6 1-1.5 1-2.4S21.6 3.4 21 2.7z"/><path class="st0" d="M1.9 2.4c0.2-0.2 0.2-0.4 0-0.6s-0.4-0.2-0.6 0c-1.8 1.8-1.8 4.7 0 6.6 0.1 0.1 0.2 0.1 0.3 0.1 0.1 0 0.2 0 0.3-0.1 0.2-0.2 0.2-0.4 0-0.6C0.4 6.3 0.4 3.9 1.9 2.4z"/><path class="st0" d="M3.6 2.6C3.4 2.5 3.2 2.5 3 2.6 2.4 3.3 2 4.1 2 5s0.4 1.8 1 2.4c0.1 0.1 0.2 0.1 0.3 0.1 0.1 0 0.2 0 0.3-0.1 0.2-0.2 0.2-0.4 0-0.6C3.1 6.4 2.8 5.8 2.8 5s0.3-1.4 0.8-1.9C3.8 3 3.8 2.8 3.6 2.6z"/></svg>
