<svg xmlns="http://www.w3.org/2000/svg" viewBox="0 0 24 24"><path fill="#FFFFFF" d="M7.5 9.5c0-1.4 1-1.5 2-1.8 0.7-0.2 1.5-0.3 1.3-1.5C10.4 5.8 10.2 5 10.2 5S9.6 4.7 9.6 4.2c0-0.4 0.2-0.6 0.2-0.6s0 0 0-0.5c0-1.2 1-2.1 2.2-2.1 1.2 0 2.2 0.9 2.2 2.1 0 0.5 0 0.5 0 0.5s0.2 0.2 0.2 0.6C14.4 4.7 13.8 5 13.8 5s-0.1 0.8-0.6 1.2c-0.2 1.1 0.6 1.2 1.3 1.5 1.1 0.3 2 0.4 2 1.8 0 0.3-1.5 0.6-3.9 0.6l-0.3-2 0.2-0.2c0 0 0-0.1 0-0.1l-0.4-0.4c0 0-0.1 0-0.1 0l-0.4 0.4c0 0 0 0.1 0 0.1l0.2 0.2 -0.3 2C9 10.1 7.5 9.8 7.5 9.5zM7 20.7c-0.7-0.2-1.5-0.3-1.3-1.5C6.1 18.8 6.3 18 6.3 18s0.6-0.3 0.6-0.8c0-0.4-0.2-0.6-0.2-0.6s0 0 0-0.5c0-1.2-1-2.1-2.2-2.1 -1.2 0-2.2 0.9-2.2 2.1 0 0.5 0 0.5 0 0.5S2 16.8 2.1 17.2C2.1 17.7 2.7 18 2.7 18s0.2 0.8 0.6 1.2c0.2 1.1-0.6 1.2-1.3 1.5C1 21 0 21.1 0 22.5c0 0.3 1.5 0.6 3.9 0.6l0.3-2L4 20.9c0 0 0-0.1 0-0.1l0.4-0.4c0 0 0.1 0 0.1 0L5 20.8c0 0 0 0.1 0 0.1l-0.2 0.2 0.3 2c2.4 0 3.9-0.3 3.9-0.6C9 21.1 8 21 7 20.7zM22 20.7c-0.7-0.2-1.5-0.3-1.3-1.5 0.4-0.4 0.6-1.2 0.6-1.2s0.6-0.3 0.6-0.8c0-0.4-0.2-0.6-0.2-0.6s0 0 0-0.5c0-1.2-1-2.1-2.2-2.1 -1.2 0-2.2 0.9-2.2 2.1 0 0.5 0 0.5 0 0.5s-0.2 0.2-0.2 0.6c0.1 0.6 0.6 0.8 0.6 0.8s0.2 0.8 0.6 1.2c0.2 1.1-0.6 1.2-1.3 1.5 -1.1 0.3-2 0.4-2 1.8 0 0.3 1.5 0.6 3.9 0.6l0.3-2L19 20.9c0 0 0-0.1 0-0.1l0.4-0.4c0 0 0.1 0 0.1 0l0.4 0.4c0 0 0 0.1 0 0.1l-0.2 0.2 0.3 2c2.4 0 3.9-0.3 3.9-0.6C24 21.1 23 21 22 20.7zM15.6 18.5c0.2 0 0.3-0.1 0.5-0.2 0.2-0.3 0.2-0.6-0.1-0.8l-3.4-2.8v-3.3c0-0.3-0.3-0.6-0.6-0.6 -0.3 0-0.6 0.3-0.6 0.6v3.3L8 17.5c-0.3 0.2-0.3 0.6-0.1 0.8 0.2 0.3 0.6 0.3 0.8 0.1l3.2-2.7 3.2 2.7C15.3 18.5 15.4 18.5 15.6 18.5z"/></svg>
