<svg width="89" height="89" viewBox="0 0 89 89" fill="none" xmlns="http://www.w3.org/2000/svg">
<g clip-path="url(#clip0)">
<path d="M42.1625 37.421L43.2948 30.131L42.7248 29.2127C42.6434 29.0858 42.6586 28.9192 42.7608 28.8075L44.2472 27.2018C44.376 27.0655 44.6108 27.0655 44.7395 27.2018L46.2259 28.8075C46.3282 28.9192 46.3433 29.0839 46.2619 29.2127L45.692 30.131L46.8243 37.4191C55.7672 37.2695 61.1826 36.2489 61.1826 35.1848C61.1826 29.9871 57.6494 29.758 53.7223 28.4742C51.3024 27.6884 48.3031 27.2454 48.9469 23.0759C50.5412 21.6179 51.096 18.6167 51.096 18.6167C51.096 18.6167 53.2186 17.5469 53.4629 15.4981C53.6427 13.936 52.8266 13.2108 52.8266 13.2108C52.8266 13.2108 52.8266 13.099 52.8266 11.2302C52.8266 6.81832 49.0472 3.34375 44.5009 3.34375C39.9528 3.34375 36.1734 6.81832 36.1734 11.2302C36.1734 13.099 36.1734 13.2108 36.1734 13.2108C36.1734 13.2108 35.3591 13.936 35.539 15.4981C35.7814 17.5469 37.904 18.6167 37.904 18.6167C37.904 18.6167 38.4607 21.6198 40.055 23.0759C40.695 27.2435 37.6976 27.6884 35.2777 28.4742C31.3487 29.758 27.8174 29.9871 27.8174 35.1848C27.806 36.247 33.2195 37.2695 42.1625 37.421Z" fill="white"/>
<path d="M25.9068 76.711C23.4869 75.9233 20.4876 75.4821 21.1295 71.3088C22.7238 69.8508 23.2805 66.8516 23.2805 66.8516C23.2805 66.8516 25.4013 65.7855 25.6455 63.7349C25.8254 62.1708 25.0112 61.4456 25.0112 61.4456C25.0112 61.4456 25.0112 61.332 25.0112 59.4669C25.0112 55.0551 21.2318 51.5786 16.6836 51.5786C12.1354 51.5786 8.356 55.0551 8.356 59.4669C8.356 61.3339 8.356 61.4456 8.356 61.4456C8.356 61.4456 7.5418 62.1708 7.72168 63.7349C7.96405 65.7836 10.0867 66.8516 10.0867 66.8516C10.0867 66.8516 10.6433 69.8527 12.2377 71.3088C12.8777 75.4783 9.88026 75.9233 7.46037 76.711C3.53137 77.991 0 78.2239 0 83.4196C0 84.4838 5.41351 85.5082 14.3584 85.6577L15.4907 78.3678L14.9207 77.4476C14.8393 77.3188 14.8545 77.156 14.9567 77.0442L16.4431 75.4348C16.5719 75.3022 16.8067 75.3022 16.9354 75.4348L18.4218 77.0442C18.5241 77.156 18.5392 77.3207 18.4578 77.4476L17.8879 78.3659L19.0202 85.654C27.9632 85.5063 33.3786 84.4819 33.3786 83.4177C33.3672 78.2239 29.8339 77.991 25.9068 76.711Z" fill="white"/>
<path d="M81.5283 76.711C79.1103 75.9233 76.111 75.4821 76.7529 71.3088C78.3472 69.8508 78.9039 66.8516 78.9039 66.8516C78.9039 66.8516 81.0246 65.7855 81.2689 63.7349C81.4487 62.1708 80.6345 61.4456 80.6345 61.4456C80.6345 61.4456 80.6345 61.332 80.6345 59.4669C80.6345 55.0551 76.8551 51.5786 72.3069 51.5786C67.7607 51.5786 63.9812 55.0551 63.9812 59.4669C63.9812 61.3339 63.9812 61.4456 63.9812 61.4456C63.9812 61.4456 63.1651 62.1708 63.3469 63.7349C63.5893 65.7836 65.7119 66.8516 65.7119 66.8516C65.7119 66.8516 66.2686 69.8527 67.8629 71.3088C68.5029 75.4783 65.5074 75.9233 63.0856 76.711C59.1585 77.9929 55.6271 78.2239 55.6271 83.4196C55.6271 84.4838 61.0406 85.5082 69.9855 85.6577L71.1197 78.3678L70.5479 77.4494C70.4665 77.3207 70.4835 77.1578 70.5839 77.0461L72.0703 75.4367C72.199 75.3041 72.4338 75.3041 72.5626 75.4367L74.049 77.0461C74.1531 77.1578 74.1664 77.3226 74.0868 77.4494L73.5169 78.3678L74.6492 85.6559C83.5922 85.5082 89.0076 84.4838 89.0076 83.4196C88.9886 78.2239 85.4554 77.991 81.5283 76.711Z" fill="white"/>
<path d="M57.7459 68.7831C58.3841 68.7831 59.0165 68.5085 59.4558 67.9802C60.2435 67.0354 60.1147 65.6323 59.1699 64.8484L46.7163 54.4834V42.2722C46.7163 41.0433 45.7204 40.0474 44.4915 40.0474C43.2626 40.0474 42.2666 41.0433 42.2666 42.2722V54.4834L29.8131 64.8484C28.8682 65.6323 28.7395 67.0354 29.5253 67.9802C30.3111 68.9251 31.7142 69.0519 32.659 68.2642L44.4915 58.42L56.3239 68.2642C56.7386 68.6126 57.2404 68.7831 57.7459 68.7831Z" fill="white"/>
</g>
<defs>
<clipPath id="clip0">
<rect width="89" height="89" fill="white"/>
</clipPath>
</defs>
</svg>
